<?xml version="1.0" encoding="utf-8"?>
<!-- Generator: Adobe Illustrator 27.2.0, SVG Export Plug-In . SVG Version: 6.00 Build 0)  -->
<svg version="1.1" id="Слой_1" xmlns="http://www.w3.org/2000/svg" xmlns:xlink="http://www.w3.org/1999/xlink" x="0px" y="0px"
	 viewBox="0 0 16 16" style="enable-background:new 0 0 16 16;" xml:space="preserve">
<style type="text/css">
	.st0{fill:#787878;}
</style>
<path class="st0" d="M14,2.7C14,2.7,14,2.7,14,2.7C11-0.6,6-0.9,2.7,2C2.5,2.2,2.2,2.4,2,2.7c0,0,0,0-0.1,0.1v0
	C-0.9,6.1-0.6,11.1,2.7,14s8.4,2.6,11.3-0.8C16.7,10.3,16.7,5.8,14,2.7L14,2.7z M13.8,12.8c-0.6-0.3-1.2-0.6-1.8-0.8
	c0.4-1.2,0.6-2.5,0.6-3.7h2.9C15.4,9.9,14.8,11.5,13.8,12.8L13.8,12.8z M0.5,8.2h2.9c0,1.3,0.2,2.5,0.6,3.7
	c-0.6,0.2-1.2,0.5-1.8,0.8C1.2,11.5,0.6,9.9,0.5,8.2z M2.2,3.2C2.8,3.5,3.4,3.8,4,4C3.6,5.2,3.4,6.5,3.4,7.7H0.5
	C0.6,6.1,1.2,4.5,2.2,3.2z M8.2,4.6c1.1,0,2.2-0.2,3.2-0.5c0.4,1.2,0.6,2.4,0.6,3.6H8.2V4.6z M8.2,4.1V0.5c1.3,0.1,2.4,1.3,3.1,3.1
	C10.3,3.9,9.3,4.1,8.2,4.1z M7.7,4.1c-1,0-2.1-0.2-3.1-0.4c0.7-1.8,1.8-3,3.1-3.1V4.1z M7.7,4.6v3.2H3.9c0-1.2,0.2-2.5,0.6-3.6
	C5.6,4.4,6.6,4.6,7.7,4.6z M3.9,8.2h3.8v3.1c-1.1,0-2.2,0.2-3.2,0.5C4.1,10.7,3.9,9.5,3.9,8.2z M7.7,11.9v3.6
	c-1.3-0.1-2.4-1.4-3.1-3.2C5.7,12.1,6.7,11.9,7.7,11.9z M8.2,11.9c1,0,2.1,0.2,3.1,0.4c-0.7,1.8-1.8,3-3.1,3.2V11.9z M8.2,11.4V8.2
	h3.8c0,1.2-0.2,2.4-0.6,3.6C10.4,11.6,9.3,11.4,8.2,11.4z M12.6,7.7c0-1.3-0.2-2.5-0.6-3.8c0.6-0.2,1.2-0.5,1.8-0.8
	c1.1,1.3,1.7,2.9,1.7,4.6H12.6z M13.4,2.8c-0.5,0.3-1.1,0.5-1.6,0.7c-0.5-1.2-1.1-2.1-1.9-2.8C11.3,1.1,12.5,1.8,13.4,2.8z M6.1,0.8
	C5.3,1.4,4.7,2.3,4.2,3.5C3.6,3.3,3.1,3.1,2.6,2.8C3.5,1.8,4.7,1.1,6.1,0.8z M2.6,13.2c0.5-0.3,1.1-0.5,1.6-0.7
	c0.5,1.2,1.1,2.2,1.9,2.8C4.7,14.9,3.5,14.2,2.6,13.2z M9.9,15.2c0.7-0.6,1.4-1.6,1.9-2.8c0.6,0.2,1.1,0.4,1.6,0.7
	C12.5,14.2,11.3,14.9,9.9,15.2L9.9,15.2z"/>
</svg>
