<svg id="Group_1248" data-name="Group 1248" xmlns="http://www.w3.org/2000/svg" width="20.602" height="15.679" viewBox="0 0 20.602 15.679">
  <path id="Path_451" data-name="Path 451" d="M18.087,57.75H2.519A2.522,2.522,0,0,0,0,60.269v10.64a2.521,2.521,0,0,0,2.519,2.519H18.083A2.521,2.521,0,0,0,20.6,70.909V60.274A2.519,2.519,0,0,0,18.087,57.75Zm1.368,13.159a1.37,1.37,0,0,1-1.368,1.368H2.519a1.37,1.37,0,0,1-1.368-1.368V60.274a1.37,1.37,0,0,1,1.368-1.368H18.083a1.37,1.37,0,0,1,1.368,1.368V70.909Z" transform="translate(0 -57.75)" fill="#2d1967"/>
  <path id="Path_452" data-name="Path 452" d="M66.369,114.429l5.039-4.519a.577.577,0,1,0-.772-.857l-6.948,6.236-1.356-1.211s-.009-.009-.009-.013a.854.854,0,0,0-.094-.081l-5.516-4.936a.577.577,0,1,0-.767.861l5.1,4.557-5.077,4.753a.578.578,0,0,0-.026.814.589.589,0,0,0,.422.183.577.577,0,0,0,.392-.153l5.154-4.821,1.4,1.249a.574.574,0,0,0,.767,0l1.437-1.287,5.124,4.868a.577.577,0,0,0,.814-.021.578.578,0,0,0-.021-.814Z" transform="translate(-53.376 -106.722)" fill="#2d1967"/>
</svg>
