<svg width="18" height="18" viewBox="0 0 18 18" fill="none" xmlns="http://www.w3.org/2000/svg">
<mask id="path-1-inside-1_813_93781" fill="white">
<path fill-rule="evenodd" clip-rule="evenodd" d="M8 0H0V17.7924H8V0ZM17.8906 0H9.89062V17.7924H17.8906V0Z"/>
</mask>
<path d="M0 0V-1H-1V0H0ZM8 0H9V-1H8V0ZM0 17.7924H-1V18.7924H0V17.7924ZM8 17.7924V18.7924H9V17.7924H8ZM9.89062 0V-1H8.89062V0H9.89062ZM17.8906 0H18.8906V-1H17.8906V0ZM9.89062 17.7924H8.89062V18.7924H9.89062V17.7924ZM17.8906 17.7924V18.7924H18.8906V17.7924H17.8906ZM0 1H8V-1H0V1ZM1 17.7924V0H-1V17.7924H1ZM8 16.7924H0V18.7924H8V16.7924ZM7 0V17.7924H9V0H7ZM9.89062 1H17.8906V-1H9.89062V1ZM10.8906 17.7924V0H8.89062V17.7924H10.8906ZM17.8906 16.7924H9.89062V18.7924H17.8906V16.7924ZM16.8906 0V17.7924H18.8906V0H16.8906Z" fill="#1F2A37" mask="url(#path-1-inside-1_813_93781)"/>
</svg>
