<svg width="19" height="18" viewBox="0 0 19 18" fill="none" xmlns="http://www.w3.org/2000/svg">
<mask id="path-1-inside-1_813_93783" fill="white">
<path fill-rule="evenodd" clip-rule="evenodd" d="M8.44531 0H0.445312V8H8.44531V0ZM18.3359 0H10.3359V8H18.3359V0ZM0.445312 9.76196H8.44531V17.762H0.445312V9.76196ZM18.3359 9.76196H10.3359V17.762H18.3359V9.76196Z"/>
</mask>
<path d="M0.445312 0V-1H-0.554688V0H0.445312ZM8.44531 0H9.44531V-1H8.44531V0ZM0.445312 8H-0.554688V9H0.445312V8ZM8.44531 8V9H9.44531V8H8.44531ZM10.3359 0V-1H9.33594V0H10.3359ZM18.3359 0H19.3359V-1H18.3359V0ZM10.3359 8H9.33594V9H10.3359V8ZM18.3359 8V9H19.3359V8H18.3359ZM8.44531 9.76196H9.44531V8.76196H8.44531V9.76196ZM0.445312 9.76196V8.76196H-0.554688V9.76196H0.445312ZM8.44531 17.762V18.762H9.44531V17.762H8.44531ZM0.445312 17.762H-0.554688V18.762H0.445312V17.762ZM10.3359 9.76196V8.76196H9.33594V9.76196H10.3359ZM18.3359 9.76196H19.3359V8.76196H18.3359V9.76196ZM10.3359 17.762H9.33594V18.762H10.3359V17.762ZM18.3359 17.762V18.762H19.3359V17.762H18.3359ZM0.445312 1H8.44531V-1H0.445312V1ZM1.44531 8V0H-0.554688V8H1.44531ZM8.44531 7H0.445312V9H8.44531V7ZM7.44531 0V8H9.44531V0H7.44531ZM10.3359 1H18.3359V-1H10.3359V1ZM11.3359 8V0H9.33594V8H11.3359ZM18.3359 7H10.3359V9H18.3359V7ZM17.3359 0V8H19.3359V0H17.3359ZM8.44531 8.76196H0.445312V10.762H8.44531V8.76196ZM9.44531 17.762V9.76196H7.44531V17.762H9.44531ZM0.445312 18.762H8.44531V16.762H0.445312V18.762ZM-0.554688 9.76196V17.762H1.44531V9.76196H-0.554688ZM10.3359 10.762H18.3359V8.76196H10.3359V10.762ZM11.3359 17.762V9.76196H9.33594V17.762H11.3359ZM18.3359 16.762H10.3359V18.762H18.3359V16.762ZM17.3359 9.76196V17.762H19.3359V9.76196H17.3359Z" fill="#1F2A37" mask="url(#path-1-inside-1_813_93783)"/>
</svg>
