<svg width="24" height="24" viewBox="0 0 24 24" fill="currentColor" xmlns="http://www.w3.org/2000/svg">
<path d="M12 1C18.0753 1 23 5.9247 23 12C23 18.0753 18.0753 23 12 23C5.9247 23 1 18.0753 1 12C1 5.9247 5.9247 1 12 1ZM12 3.2C9.66609 3.2 7.42778 4.12714 5.77746 5.77746C4.12714 7.42778 3.2 9.66609 3.2 12C3.2 14.3339 4.12714 16.5722 5.77746 18.2225C7.42778 19.8729 9.66609 20.8 12 20.8C14.3339 20.8 16.5722 19.8729 18.2225 18.2225C19.8729 16.5722 20.8 14.3339 20.8 12C20.8 9.66609 19.8729 7.42778 18.2225 5.77746C16.5722 4.12714 14.3339 3.2 12 3.2ZM15.8885 8.0191C16.086 7.81972 16.3522 7.70336 16.6327 7.69385C16.9132 7.68433 17.1867 7.78238 17.3972 7.96791C17.6078 8.15345 17.7395 8.41244 17.7653 8.69189C17.7912 8.97133 17.7092 9.25009 17.5363 9.4711L17.445 9.5745L11.3004 15.7202C11.0907 15.9299 10.8113 16.0553 10.5152 16.0725C10.2191 16.0897 9.92704 15.9976 9.6944 15.8137L9.5888 15.7202L6.555 12.6864C6.35562 12.4889 6.23926 12.2227 6.22975 11.9422C6.22023 11.6617 6.31828 11.3882 6.50381 11.1777C6.68935 10.9671 6.94834 10.8354 7.22779 10.8096C7.50723 10.7837 7.78599 10.8657 8.007 11.0386L8.1104 11.131L10.4446 13.4641L15.8896 8.0191H15.8885Z" fill="black"/>
</svg>
