<svg width="24" height="24" viewBox="0 0 24 24" fill="none" xmlns="http://www.w3.org/2000/svg">
<path d="M12 22C17.5228 22 22 17.5228 22 12C22 6.47715 17.5228 2 12 2C6.47715 2 2 6.47715 2 12C2 17.5228 6.47715 22 12 22Z" stroke="black" stroke-width="2" stroke-linecap="round" stroke-linejoin="round"/>
<path d="M11.2014 14.5425C11.4378 14.3845 11.7157 14.3002 12 14.3002C12.3812 14.3002 12.7469 14.4516 13.0165 14.7212C13.2861 14.9908 13.4375 15.3564 13.4375 15.7377C13.4375 16.022 13.3532 16.2999 13.1952 16.5363C13.0373 16.7727 12.8128 16.957 12.5501 17.0658C12.2874 17.1746 11.9984 17.203 11.7196 17.1476C11.4407 17.0921 11.1846 16.9552 10.9835 16.7542C10.7825 16.5531 10.6456 16.297 10.5901 16.0181C10.5347 15.7393 10.5631 15.4503 10.6719 15.1876C10.7807 14.9249 10.965 14.7004 11.2014 14.5425Z" fill="black"/>
<path d="M12.8132 12.2384C12.5975 12.454 12.305 12.5752 12 12.5752C11.695 12.5752 11.4025 12.454 11.1868 12.2384C10.9712 12.0227 10.85 11.7302 10.85 11.4252V7.9752C10.85 7.6702 10.9712 7.37769 11.1868 7.16202C11.4025 6.94636 11.695 6.8252 12 6.8252C12.305 6.8252 12.5975 6.94636 12.8132 7.16202C13.0288 7.37769 13.15 7.6702 13.15 7.9752V11.4252C13.15 11.7302 13.0288 12.0227 12.8132 12.2384Z" fill="black"/>
</svg>
