<svg width="27" height="27" viewBox="0 0 12 18" fill="currentColor" xmlns="http://www.w3.org/2000/svg">
<path d="M6.00391 17.8715C6.07182 17.8715 6.07464 17.8457 6.14731 17.6609C7.11121 15.2088 12 10.5916 12 6.50503C12 4.81388 11.3679 3.192 10.2426 1.99617C9.11742 0.800347 7.5913 0.12854 6 0.12854C4.4087 0.12854 2.88258 0.800347 1.75736 1.99617C0.632141 3.192 2.37122e-08 4.81388 0 6.50503C0 10.448 4.89849 15.1797 5.85532 17.6609C5.92672 17.846 5.93599 17.8715 6.00391 17.8715ZM6 9.69328C5.20435 9.69328 4.44129 9.35737 3.87868 8.75946C3.31607 8.16155 3 7.35061 3 6.50503C3 5.65946 3.31607 4.84851 3.87868 4.2506C4.44129 3.65269 5.20435 3.31679 6 3.31679C6.79565 3.31679 7.55871 3.65269 8.12132 4.2506C8.68393 4.84851 9 5.65946 9 6.50503C9 7.35061 8.68393 8.16155 8.12132 8.75946C7.55871 9.35737 6.79565 9.69328 6 9.69328Z"/>
</svg>
