<svg width="507" height="512" viewBox="0 0 507 512" class="w-4 h-4" fill="currentColor" xmlns="http://www.w3.org/2000/svg">
<path fill-rule="evenodd" clip-rule="evenodd" d="M253.499 509.46C113.513 509.46 0.0390625 395.986 0.0390625 256C0.0390625 116.014 113.513 2.54004 253.499 2.54004C393.485 2.54004 506.959 116.014 506.959 256C506.959 395.986 393.485 509.46 253.499 509.46ZM181.372 119.109C163.874 119.109 149.689 133.294 149.689 150.792V256.032V282.341V361.268C149.689 378.767 163.874 392.951 181.372 392.951C198.87 392.951 213.054 378.767 213.054 361.268V314.023H253.502C280.141 314.023 306.209 304.401 325.855 286.485C345.6 268.483 357.316 243.406 357.316 216.566C357.316 189.726 345.6 164.649 325.855 146.646C306.209 128.732 280.141 119.109 253.502 119.109H181.372ZM253.502 250.658H213.054V182.474H253.502C265.126 182.474 275.753 186.711 283.16 193.467C290.473 200.135 293.951 208.517 293.951 216.566C293.951 224.615 290.473 232.998 283.16 239.665C275.753 246.421 265.126 250.658 253.502 250.658Z"/>
</svg>
