<svg xmlns="http://www.w3.org/2000/svg" viewBox="0 0 171 26.24" fill="currentColor">
  <path class="cls-1" d="m22.96,8.39c-.22,1.25-9.12,17.79-9.12,17.79,0,0-8.77-16.61-9.1-17.79-.04,1.25-.83,17.79-.83,17.79H0L1.1-.04h2.69s9.55,16.63,10.06,17.94C14.2,16.89,24.09-.04,24.09-.04h2.56l1.1,26.22h-3.96s-.57-15.84-.83-17.79Z"/>
  <path class="cls-1" d="m129.88,26.24h-3.99V.04h5.94c2.82,0,4.91.22,6.52,1.47,1.58,1.25,2.53,3.3,2.53,5.75,0,4.21-2.05,6.6-6.01,7.07l9.02,11.91h-4.8l-8.72-11.73h-.48v11.73Zm1.03-15.03c3.74,0,5.61-.44,5.61-3.59s-1.8-3.92-5.61-3.92h-.77v7.51h.77Z"/>
  <path class="cls-1" d="m49.09,19.5h-10.37l-3.04,6.74h-4.47L43.88.02l12.68,26.22h-4.51l-2.97-6.74Zm-1.5-3.56s-3.3-6.61-3.66-7.93c-.33,1.32-3.63,7.93-3.63,7.93h7.29Z"/>
  <path class="cls-1" d="m62.92,26.24h-3.99V.04h5.94c2.82,0,5.85.22,7.46,1.47,1.58,1.25,2.53,3.3,2.53,5.75,0,4.21-2.99,6.6-6.95,7.07l9.02,11.91h-4.8l-8.72-11.73h-.48v11.73Zm1.03-15.03c3.74,0,6.81-.44,6.81-3.59s-3-3.92-6.81-3.92h-.77v7.51h.77Z"/>
  <path class="cls-1" d="m116.91,22.05c-2.51,2.44-5.78,3.78-9.29,3.78s-6.85-1.34-9.32-3.78c-2.51-2.44-3.82-5.61-3.82-9.11s1.31-6.67,3.82-9.15C100.81,1.35,104.08.04,107.62.04s6.78,1.31,9.29,3.75c2.51,2.48,3.85,5.68,3.85,9.15s-1.34,6.67-3.85,9.11Zm-2.96-15.65c-1.69-1.75-3.96-2.68-6.33-2.68s-4.64.93-6.36,2.68c-1.72,1.75-2.61,4.06-2.61,6.54s.89,4.75,2.61,6.5c1.72,1.75,3.96,2.68,6.36,2.68s4.61-.93,6.33-2.68c1.72-1.75,2.65-4.02,2.65-6.5s-.93-4.78-2.65-6.54Z"/>
  <path class="cls-1" d="m147.48.04h4.25v26.2h-4.25V.04Z"/>
  <path class="cls-1" d="m156.38.04h14.62v3.63h-10.37v6.56h10.37v3.74h-10.37v8.47h10.37v3.81h-14.62V.04Z"/>
  <path class="cls-1" d="m80.99,22.1c3.37,0,5.27-.95,5.31-5.29V.04h4.24v17.63c0,6.56-4.24,8.58-9.24,8.58h-1.61v-4.17l1.31.03"/>
</svg>