<svg width="25" height="20" viewBox="0 0 25 20" fill="none" xmlns="http://www.w3.org/2000/svg">
<path fill-rule="evenodd" clip-rule="evenodd" d="M24.344 0.668C23.907 0.222 23.382 0 22.768 0H2.232C1.618 0 1.093 0.222 0.656 0.668C0.218 1.113 0 1.648 0 2.273V17.727C0 18.353 0.218 18.887 0.656 19.332C1.093 19.778 1.618 20 2.232 20H22.768C23.382 20 23.907 19.778 24.344 19.332C24.782 18.887 25 18.352 25 17.727V2.273C25 1.648 24.782 1.113 24.344 0.668ZM23.214 17.727C23.214 17.85 23.17 17.957 23.081 18.047C22.993 18.137 22.889 18.181 22.768 18.181H2.232C2.111 18.181 2.006 18.137 1.918 18.047C1.83 17.957 1.786 17.85 1.786 17.727V6.818C2.083 7.159 2.404 7.472 2.748 7.756C5.241 9.706 7.222 11.307 8.691 12.557C9.166 12.964 9.552 13.281 9.849 13.508C10.147 13.736 10.549 13.965 11.056 14.197C11.563 14.429 12.04 14.545 12.486 14.545H12.5H12.514C12.96 14.545 13.437 14.429 13.944 14.197C14.451 13.965 14.853 13.736 15.151 13.508C15.448 13.281 15.834 12.964 16.309 12.557C17.778 11.307 19.759 9.706 22.252 7.756C22.596 7.472 22.917 7.159 23.214 6.818V17.727ZM23.214 2.642V2.798C23.214 3.357 22.998 3.98 22.566 4.666C22.133 5.352 21.666 5.9 21.164 6.307C19.368 7.746 17.504 9.247 15.569 10.809C15.513 10.857 15.35 10.996 15.081 11.228C14.811 11.46 14.597 11.638 14.439 11.761C14.281 11.884 14.074 12.034 13.818 12.209C13.562 12.384 13.328 12.514 13.114 12.599C12.9 12.684 12.7 12.727 12.514 12.727H12.5H12.486C12.3 12.727 12.1 12.684 11.886 12.599C11.672 12.514 11.437 12.384 11.182 12.209C10.926 12.033 10.719 11.884 10.561 11.761C10.403 11.638 10.189 11.46 9.919 11.228C9.65 10.996 9.487 10.857 9.431 10.809C7.497 9.247 5.632 7.746 3.837 6.307C2.47 5.208 1.786 3.863 1.786 2.272C1.786 2.15 1.83 2.043 1.918 1.953C2.007 1.863 2.111 1.818 2.232 1.818H22.768C22.842 1.861 22.908 1.872 22.963 1.854C23.019 1.835 23.061 1.87 23.089 1.96C23.117 2.05 23.142 2.093 23.165 2.088C23.189 2.083 23.203 2.142 23.207 2.266C23.212 2.389 23.214 2.45 23.214 2.45V2.642Z" fill="#415094"/>
</svg>
